<?xml version="1.0" ?>
<svg viewBox="0 0 32 32" xmlns="http://www.w3.org/2000/svg">
    <defs>
        <style>.cls-1{fill:#010101;}</style>
    </defs>
    <title/>
    <g id="Facebook">
        <path class="cls-1"
              d="M27,30H21a1,1,0,0,1-1-1V19a1,1,0,0,1,1-1h2.22l.5-2H21a1,1,0,0,1-1-1V12a2,2,0,0,1,2-2h2V8H20a1.88,1.88,0,0,0-2,2v5a1,1,0,0,1-1,1H14v2h3a1,1,0,0,1,1,1V29a1,1,0,0,1-1,1H7a1,1,0,0,1,0-2h9V20H13a1,1,0,0,1-1-1V15a1,1,0,0,1,1-1h3V10a3.89,3.89,0,0,1,4-4h5a1,1,0,0,1,1,1v4a1,1,0,0,1-1,1H22v2h3a1,1,0,0,1,.79.38,1,1,0,0,1,.18.86l-1,4A1,1,0,0,1,24,20H22v8h5a.91.91,0,0,0,1-1V5a.91.91,0,0,0-1-1H5A.91.91,0,0,0,4,5V28.94a1,1,0,0,1-2,0V5A2.91,2.91,0,0,1,5,2H27a2.91,2.91,0,0,1,3,3V27A2.91,2.91,0,0,1,27,30Z"/>
    </g>
</svg>