<?xml version="1.0" ?><svg viewBox="0 0 32 32" xmlns="http://www.w3.org/2000/svg"><defs><style>.cls-1{fill:#010101;}</style></defs><title/><g id="Twitter"><path class="cls-1" d="M11.68,27.42a17.88,17.88,0,0,1-9.25-2.75A1,1,0,0,1,3.57,23C4,23.29,13,29.4,21.25,21.18,25,16.49,25,14.72,25,10.85a1,1,0,0,1,.82-1l-.27-.12A1,1,0,0,1,25,8.85a1,1,0,0,1,.55-.9l.2-.11c-.64,0-1.12,0-1.46-.28a6.19,6.19,0,0,0-5.08-.7c-1.47.63-2.21,2.31-2.21,5a1,1,0,0,1-1,1A15.94,15.94,0,0,1,5.45,8.64,4.27,4.27,0,0,0,7.55,13,1,1,0,0,1,7,14.85a5.18,5.18,0,0,1-1.36-.25A7.8,7.8,0,0,0,8.45,17,1,1,0,0,1,9,18.08a1,1,0,0,1-1,.77H7.52a4,4,0,0,0,3.48,2,1,1,0,0,1,1,1c0,1.47-1.62,2-3,2a1,1,0,0,1-1-1,1,1,0,0,1,.24-.65A6.69,6.69,0,0,1,5,18.09a1,1,0,0,1,.18-.86l0-.06A6.09,6.09,0,0,1,3,12.85,1,1,0,0,1,3.47,12,1,1,0,0,1,4,11.85,6.33,6.33,0,0,1,4.11,6.4a1,1,0,0,1,.73-.54,1,1,0,0,1,.87.28A14.73,14.73,0,0,0,15,10.81C15.31,7.1,17,5.6,18.48,5c2.49-1,5.61,0,6.86.86.87,0,2.33-.09,2.95-.71a1,1,0,0,1,1.6,1.16,7.27,7.27,0,0,1-1.07,1.56A1,1,0,0,1,29.89,9.3,4.51,4.51,0,0,1,27,11.69c0,3.59-.3,5.88-4.22,10.78l-.07.09A15.28,15.28,0,0,1,11.68,27.42Z"/></g></svg>