<svg width="52" height="52" xmlns="http://www.w3.org/2000/svg">

 <g>
  <title>background</title>
  <rect fill="none" id="canvas_background" height="52" width="52" y="0" x="23.28339"/>
 </g>
 <g>
  <title>Layer 1</title>
  <path id="svg_1" d="m4.647347,16.090826l42.706382,0c1.964493,0 3.558868,-1.479713 3.558868,-3.302933s-1.594376,-3.302932 -3.558868,-3.302932l-42.706382,0c-1.964494,0 -3.558864,1.479713 -3.558864,3.302932s1.59437,3.302933 3.558864,3.302933zm42.706382,6.605862l-42.706382,0c-1.964494,0 -3.558864,1.479713 -3.558864,3.302933s1.59437,3.302933 3.558864,3.302933l42.706382,0c1.964493,0 3.558868,-1.479713 3.558868,-3.302933s-1.594376,-3.302933 -3.558868,-3.302933zm0,13.211729l-42.706382,0c-1.964494,0 -3.558864,1.479713 -3.558864,3.302933s1.59437,3.302933 3.558864,3.302933l42.706382,0c1.964493,0 3.558868,-1.479717 3.558868,-3.302933s-1.594376,-3.302933 -3.558868,-3.302933z"/>
  <line stroke-linecap="null" stroke-linejoin="null" id="svg_2" y2="4.07383" x2="34.397398" y1="5.702495" x1="0" fill-opacity="null" stroke-opacity="null" stroke-width="null" stroke="null" fill="none"/>
 </g>
</svg>